<?xml version="1.0" encoding="utf-8"?>
<!-- Generator: Adobe Illustrator 18.1.1, SVG Export Plug-In . SVG Version: 6.00 Build 0)  -->
<svg version="1.1" id="Layer_1" xmlns="http://www.w3.org/2000/svg" xmlns:xlink="http://www.w3.org/1999/xlink" x="0px" y="0px"
	 width="100px" height="100px" viewBox="0 0 100 100" style="enable-background:new 0 0 100 100;" xml:space="preserve">
<symbol  id="inspector" viewBox="-175.6 -394.2 351.2 668.5">
	<g>
		<g style="opacity:4.000000e-02;">
			<polygon points="172.4,-394.2 -175.6,-394.2 -175.6,273.2 172.4,273.2 			"/>
		</g>
		<g>
			<polygon style="fill:#FFFFFF;" points="175.6,-394.2 -172.4,-394.2 -172.4,273.2 175.6,273.2 			"/>
		</g>
	</g>
	<text transform="matrix(1 0 0 -1 -100.9355 229.75)" style="fill:#231F20; font-family:'ProximaNova-Bold'; font-size:18;">Balances</text>
	<text transform="matrix(1 0 0 -1 -100.9355 249.0898)" style="fill:#6D6E70; font-family:'ProximaNova-Regular'; font-size:12;">CSV File</text>
	<polyline style="fill:none;stroke:#929497;stroke-width:2;stroke-miterlimit:10;" points="151,244.2 154,241.2 157,244.2 	"/>
	<g>
		<path style="fill:none;stroke:#2E75B3;stroke-width:1.2;stroke-linejoin:round;stroke-miterlimit:10;" d="M131.9,249.6
			c-0.8-0.3-1.6-0.8-2.3-1.3l-1.8,1l-2.4-4.2l1.8-1c-0.1-0.4-0.1-0.9-0.1-1.3c0-0.5,0-0.9,0.1-1.3l-1.8-1l2.4-4.2l1.8,1
			c0.7-0.6,1.5-1,2.3-1.3v-2h4.9v2c0.8,0.3,1.6,0.8,2.3,1.3l1.8-1l2.4,4.2l-1.8,1c0.1,0.4,0.1,0.9,0.1,1.3c0,0.5,0,0.9-0.1,1.3
			l1.8,1l-2.4,4.2l-1.8-1c-0.7,0.6-1.5,1-2.3,1.3v2.2h-4.9V249.6z"/>
		<path style="fill:none;stroke:#2E75B3;stroke-width:1.2;stroke-linejoin:round;stroke-miterlimit:10;" d="M137.5,242.7
			c0-1.8-1.4-3.2-3.2-3.2s-3.2,1.4-3.2,3.2c0,1.8,1.4,3.2,3.2,3.2S137.5,244.5,137.5,242.7z"/>
	</g>
	<line style="fill:none;stroke:#CCCCCC;stroke-width:0.8;stroke-miterlimit:10;" x1="-172.4" y1="274.2" x2="-172.4" y2="-394.2"/>
	<g>
		<text transform="matrix(1 0 0 -1 -143.0361 185.6533)" style="fill:#231F20; font-family:'ProximaNova-Bold'; font-size:12;">DETAILS</text>
	</g>
	<g>
		<text transform="matrix(1 0 0 -1 -3.3701 185.6533)" style="fill:#808184; font-family:'ProximaNova-Regular'; font-size:12;">Sample Data</text>
	</g>
	<g>
		<text transform="matrix(1 0 0 -1 -70.6836 185.6533)" style="fill:#808184; font-family:'ProximaNova-Regular'; font-size:12;">Query</text>
	</g>
	<polygon style="fill:#2E75B3;" points="-96.9,173.4 -142,173.4 -142,176.4 -96.9,176.4 	"/>
	<line style="fill:none;stroke:#CCCCCC;stroke-width:0.8;stroke-miterlimit:10;" x1="-146.8" y1="173.2" x2="164" y2="173.2"/>
	<g>
		<g>
			<line style="fill:none;stroke:#CCCCCC;stroke-width:0.8;stroke-miterlimit:10;" x1="-146.8" y1="85.5" x2="-146.3" y2="85.5"/>
			
				<line style="fill:none;stroke:#CCCCCC;stroke-width:0.8;stroke-miterlimit:10;stroke-dasharray:1.0023,1.0023;" x1="-145.3" y1="85.5" x2="163" y2="85.5"/>
			<line style="fill:none;stroke:#CCCCCC;stroke-width:0.8;stroke-miterlimit:10;" x1="163.5" y1="85.5" x2="164" y2="85.5"/>
		</g>
	</g>
	<g>
		<g>
			<line style="fill:none;stroke:#CCCCCC;stroke-width:0.8;stroke-miterlimit:10;" x1="-146.8" y1="43.9" x2="-146.3" y2="43.9"/>
			
				<line style="fill:none;stroke:#CCCCCC;stroke-width:0.8;stroke-miterlimit:10;stroke-dasharray:1.0023,1.0023;" x1="-145.3" y1="43.9" x2="163" y2="43.9"/>
			<line style="fill:none;stroke:#CCCCCC;stroke-width:0.8;stroke-miterlimit:10;" x1="163.5" y1="43.9" x2="164" y2="43.9"/>
		</g>
	</g>
	<g>
		<g>
			<line style="fill:none;stroke:#CCCCCC;stroke-width:0.8;stroke-miterlimit:10;" x1="-146.8" y1="2.2" x2="-146.3" y2="2.2"/>
			
				<line style="fill:none;stroke:#CCCCCC;stroke-width:0.8;stroke-miterlimit:10;stroke-dasharray:1.0023,1.0023;" x1="-145.3" y1="2.2" x2="163" y2="2.2"/>
			<line style="fill:none;stroke:#CCCCCC;stroke-width:0.8;stroke-miterlimit:10;" x1="163.5" y1="2.2" x2="164" y2="2.2"/>
		</g>
	</g>
	<g>
		<g>
			<line style="fill:none;stroke:#CCCCCC;stroke-width:0.8;stroke-miterlimit:10;" x1="-146.8" y1="-38.1" x2="-146.3" y2="-38.1"/>
			
				<line style="fill:none;stroke:#CCCCCC;stroke-width:0.8;stroke-miterlimit:10;stroke-dasharray:1.0023,1.0023;" x1="-145.3" y1="-38.1" x2="163" y2="-38.1"/>
			<line style="fill:none;stroke:#CCCCCC;stroke-width:0.8;stroke-miterlimit:10;" x1="163.5" y1="-38.1" x2="164" y2="-38.1"/>
		</g>
	</g>
	<g>
		<line style="fill:none;stroke:#CCCCCC;stroke-width:0.8;stroke-miterlimit:10;" x1="-164.9" y1="39.3" x2="-164.9" y2="2.3"/>
		<line style="fill:none;stroke:#CCCCCC;stroke-width:0.8;stroke-miterlimit:10;" x1="-160.4" y1="39.3" x2="-160.4" y2="2.3"/>
	</g>
	<text transform="matrix(1 0 0 -1 -138.5596 99.7148)" style="fill:#58595B; font-family:'ProximaNova-Bold'; font-size:12;">Size</text>
	<text transform="matrix(1 0 0 -1 -29.3467 99.7148)" style="fill:#231F20; font-family:'ProximaNova-Regular'; font-size:12;">190,800 docs</text>
	<text transform="matrix(1 0 0 -1 -29.3467 18.6719)" style="fill:#231F20; font-family:'ProximaNova-Regular'; font-size:12;">15 Users</text>
	<text transform="matrix(1 0 0 -1 -27.6807 60.2891)" style="fill:#231F20; font-family:'ProximaNova-Regular'; font-size:12;">Fair</text>
	<polygon style="fill:none;" points="-29.3,160.3 154,160.3 154,131.9 -29.3,131.9 	"/>
	<text transform="matrix(1 0 0 -1 -29.3467 150.2783)"><tspan x="0" y="0" style="fill:#231F20; font-family:'ProximaNova-Regular'; font-size:12;">Our most important database ever </tspan><tspan x="0" y="14.4" style="fill:#231F20; font-family:'ProximaNova-Regular'; font-size:12;">that contains everything</tspan></text>
	<g>
		<g>
			<line style="fill:none;stroke:#CCCCCC;stroke-width:0.8;stroke-miterlimit:10;" x1="-146.8" y1="123.7" x2="-146.3" y2="123.7"/>
			
				<line style="fill:none;stroke:#CCCCCC;stroke-width:0.8;stroke-miterlimit:10;stroke-dasharray:1.0023,1.0023;" x1="-145.3" y1="123.7" x2="163" y2="123.7"/>
			<line style="fill:none;stroke:#CCCCCC;stroke-width:0.8;stroke-miterlimit:10;" x1="163.5" y1="123.7" x2="164" y2="123.7"/>
		</g>
	</g>
	<text transform="matrix(1 0 0 -1 -138.5596 150.2783)" style="fill:#58595B; font-family:'ProximaNova-Bold'; font-size:12;">Description</text>
	<g>
		<polygon style="fill:#40ACE2;" points="2.7,59.3 7.2,69.3 13.2,69.3 8.5,59.3 		"/>
		<polygon style="fill:#40ACE2;" points="10.6,59.3 15,69.3 21.1,69.3 16.4,59.3 		"/>
		<polygon style="opacity:9.000000e-02;" points="18.4,59.3 22.9,69.3 29,69.3 24.3,59.3 		"/>
		<polygon style="opacity:9.000000e-02;" points="26.3,59.3 30.8,69.3 36.8,69.3 32.1,59.3 		"/>
	</g>
	<g>
		<text transform="matrix(1 0 0 -1 96.3291 61.1006)" style="fill:#2E75B3; font-family:'ProximaNova-Semibold'; font-size:12;">Cleanse</text>
	</g>
	<text transform="matrix(1 0 0 -1 -138.5596 61.2607)" style="fill:#58595B; font-family:'ProximaNova-Bold'; font-size:12;">Data Quality</text>
	<text transform="matrix(1 0 0 -1 -138.5596 19.4424)" style="fill:#58595B; font-family:'ProximaNova-Bold'; font-size:12;">Security</text>
	<text transform="matrix(1 0 0 -1 -29.3467 -22.3281)" style="fill:#231F20; font-family:'ProximaNova-Regular'; font-size:12;">None</text>
	<text transform="matrix(1 0 0 -1 -138.5596 -21.5576)" style="fill:#58595B; font-family:'ProximaNova-Bold'; font-size:12;">Processing</text>
	<g>
		<g>
			<line style="fill:none;stroke:#CCCCCC;stroke-width:0.8;stroke-miterlimit:10;" x1="-146.8" y1="-78.1" x2="-146.3" y2="-78.1"/>
			
				<line style="fill:none;stroke:#CCCCCC;stroke-width:0.8;stroke-miterlimit:10;stroke-dasharray:1.0023,1.0023;" x1="-145.3" y1="-78.1" x2="163" y2="-78.1"/>
			<line style="fill:none;stroke:#CCCCCC;stroke-width:0.8;stroke-miterlimit:10;" x1="163.5" y1="-78.1" x2="164" y2="-78.1"/>
		</g>
	</g>
	<text transform="matrix(1 0 0 -1 -29.3467 -62.3281)" style="fill:#231F20; font-family:'ProximaNova-Regular'; font-size:12;">Every 6 hours</text>
	<text transform="matrix(1 0 0 -1 -138.5596 -62.5576)" style="fill:#58595B; font-family:'ProximaNova-Bold'; font-size:12;">Schedule</text>
	<g>
		
			<polyline style="fill:none;stroke:#2E75B3;stroke-width:1.2;stroke-linecap:round;stroke-linejoin:round;stroke-miterlimit:10;" points="
			147,61.4 154,58.3 161,61.4 		"/>
		
			<polyline style="fill:none;stroke:#2E75B3;stroke-width:1.2;stroke-linecap:round;stroke-linejoin:round;stroke-miterlimit:10;" points="
			147,63.3 154,60.2 161,63.3 		"/>
		
			<polyline style="fill:none;stroke:#2E75B3;stroke-width:1.2;stroke-linecap:round;stroke-linejoin:round;stroke-miterlimit:10;" points="
			147,65.2 154,62.1 161,65.2 		"/>
		
			<polygon style="fill:none;stroke:#2E75B3;stroke-width:1.2;stroke-linecap:round;stroke-linejoin:round;stroke-miterlimit:10;" points="
			147,67.1 154,70.3 161,67.1 154,64 		"/>
	</g>
	<g>
		<text transform="matrix(1 0 0 -1 101.6572 19.5117)" style="fill:#2E75B3; font-family:'ProximaNova-Semibold'; font-size:12;">Access</text>
	</g>
	<g>
		<text transform="matrix(1 0 0 -1 119.0576 -62.3281)" style="fill:#2E75B3; font-family:'ProximaNova-Semibold'; font-size:12;">Edit</text>
	</g>
	<g>
		<path style="fill:none;stroke:#2E75B3;stroke-width:1.3;stroke-linecap:round;stroke-linejoin:round;stroke-miterlimit:10;" d="
			M157.5,26.9c0-2-1.6-3.5-3.5-3.5c-2,0-3.5,1.6-3.5,3.5c0,2,1.6,3.5,3.5,3.5C156,30.4,157.5,28.9,157.5,26.9z"/>
		<path style="fill:none;stroke:#2E75B3;stroke-width:1.3;stroke-linecap:round;stroke-linejoin:round;stroke-miterlimit:10;" d="
			M159.9,17.4h-11.8c0,3.1,2.6,5.9,5.9,5.9C157.3,23.3,159.9,20.5,159.9,17.4z"/>
	</g>
	<g>
		<path style="fill:none;stroke:#2E75B3;stroke-width:1.2;stroke-linecap:round;stroke-linejoin:round;stroke-miterlimit:10;" d="
			M161-59.1c0-3.9-3.1-7-7-7c-3.9,0-7,3.1-7,7c0,3.9,3.1,7,7,7C157.9-52.1,161-55.2,161-59.1z"/>
		
			<polyline style="fill:none;stroke:#2E75B3;stroke-width:1.2;stroke-linecap:round;stroke-linejoin:round;stroke-miterlimit:10;" points="
			153.8,-55.7 153.8,-59.1 157.4,-62.4 		"/>
	</g>
	<g>
		
			<polygon style="fill:none;stroke:#2E75B3;stroke-width:1.2;stroke-linecap:round;stroke-linejoin:round;stroke-miterlimit:10;" points="
			91,236.7 85.8,235.2 87.4,240.3 98.3,251.2 101.9,247.6 		"/>
		
			<line style="fill:none;stroke:#2E75B3;stroke-width:1.2;stroke-linejoin:round;stroke-miterlimit:10;" x1="95.4" y1="248.3" x2="99" y2="244.7"/>
		
			<line style="fill:none;stroke:#2E75B3;stroke-width:1.2;stroke-linecap:round;stroke-linejoin:round;stroke-miterlimit:10;" x1="87.4" y1="240.3" x2="91" y2="236.7"/>
	</g>
	<line style="fill:none;stroke:#CCCCCC;stroke-width:0.8;stroke-miterlimit:10;" x1="114" y1="251.5" x2="114" y2="233.3"/>
	<g style="opacity:0.8;">
		<g>
			
				<polygon style="fill:none;stroke:#231F20;stroke-width:1.3636;stroke-linecap:round;stroke-linejoin:round;stroke-miterlimit:10;" points="
				-118.3,228.3 -141,228.3 -141,258.3 -126.6,258.3 -118.3,251.1 			"/>
			<polyline style="fill:none;stroke:#231F20;stroke-width:1.3636;stroke-linejoin:round;stroke-miterlimit:10;" points="
				-126.6,258.3 -126.6,251.1 -118.3,251.1 			"/>
			<g>
				<polygon style="fill:none;stroke:#231F20;stroke-width:0.9545;stroke-linecap:round;stroke-miterlimit:10;" points="
					-123.2,238.4 -136.1,238.4 -136.1,247.4 -123.2,247.4 				"/>
				
					<line style="fill:none;stroke:#231F20;stroke-width:0.9545;stroke-linecap:round;stroke-miterlimit:10;" x1="-136.1" y1="244.4" x2="-123.2" y2="244.4"/>
				
					<line style="fill:none;stroke:#231F20;stroke-width:0.9545;stroke-linecap:round;stroke-miterlimit:10;" x1="-136.1" y1="241.4" x2="-123.2" y2="241.4"/>
				
					<line style="fill:none;stroke:#231F20;stroke-width:0.9545;stroke-linecap:round;stroke-miterlimit:10;" x1="-136.1" y1="238.4" x2="-123.2" y2="238.4"/>
				
					<line style="fill:none;stroke:#231F20;stroke-width:0.9545;stroke-linecap:round;stroke-miterlimit:10;" x1="-131.5" y1="247.4" x2="-131.5" y2="238.4"/>
			</g>
		</g>
		<text transform="matrix(1 0 0 -1 -135.3911 231.9883)" style="fill:#231F20; font-family:'ProximaNova-Bold'; font-size:5.6897;">CSV</text>
	</g>
</symbol>
<g>
	<circle style="fill:#FFFFFF;" cx="50" cy="50" r="50"/>
	<g>
		<path style="fill:#F9C432;" d="M68.4,30.3c-5.5,0-9.9,4.5-9.9,9.9s4.5,9.9,9.9,9.9s9.9-4.5,9.9-9.9S73.9,30.3,68.4,30.3z"/>
		<path style="fill:#F9C432;" d="M95.9,52c0-1.6-1.3-2.9-2.9-2.9s-2.9,1.3-2.9,2.9c0,1.6,1.3,2.9,2.9,2.9S95.9,53.6,95.9,52z"/>
		<path style="fill:#F9C432;" d="M90.5,20.7L79.1,32.1c1.7,2.3,2.8,5.1,2.8,8.2c0,1.4-0.3,2.8-0.7,4.1l7,3.3
			c1.2-1.3,2.9-2.2,4.8-2.2c3.6,0,6.5,2.9,6.5,6.5s-2.9,6.5-6.5,6.5s-6.5-2.9-6.5-6.5c0-0.4,0-0.7,0.1-1.1l-7-3.3
			c-1.9,2.9-4.9,5-8.3,5.8v14.7c2.7,0.8,4.7,3.2,4.7,6.2c0,3.6-2.9,6.5-6.5,6.5S63,77.9,63,74.3c0-2.9,2-5.4,4.7-6.2V53.7
			c-2.8-0.1-5.4-1.1-7.6-2.8L36.5,74.6c0.3,0.8,0.5,1.6,0.5,2.5c0,3.6-2.9,6.5-6.5,6.5S24,80.7,24,77.1s2.9-6.5,6.5-6.5
			c1.4,0,2.7,0.4,3.7,1.2l23.4-23.4c-1.7-2.3-2.8-5.1-2.8-8.2c0-1.2,0.2-2.3,0.5-3.5l-16-6.6c-1.2,1.5-3,2.5-5,2.5
			c-3.6,0-6.5-2.9-6.5-6.5s2.9-6.5,6.5-6.5c3.6,0,6.5,2.9,6.5,6.5c0,0.2,0,0.5-0.1,0.7l16,6.6c2.3-4,6.7-6.8,11.6-6.8
			c3.1,0,5.9,1.1,8.2,2.8l11.7-11.7C79.1,6.9,65.4,0,50,0C22.4,0,0,22.4,0,50s22.4,50,50,50s50-22.4,50-50
			C100,39,96.4,28.9,90.5,20.7z"/>
		<path style="fill:#F9C432;" d="M66.7,74.2c0,1.6,1.3,2.9,2.9,2.9s2.9-1.3,2.9-2.9s-1.3-2.9-2.9-2.9C68,71.3,66.7,72.6,66.7,74.2z"
			/>
		<path style="fill:#F9C432;" d="M27.6,77.1c0,1.6,1.3,2.9,2.9,2.9s2.9-1.3,2.9-2.9s-1.3-2.9-2.9-2.9C28.9,74.2,27.6,75.5,27.6,77.1
			z"/>
		<path style="fill:#F9C432;" d="M31.5,26.2c0,1.6,1.3,2.9,2.9,2.9c1.6,0,2.9-1.3,2.9-2.9s-1.3-2.9-2.9-2.9
			C32.8,23.3,31.5,24.6,31.5,26.2z"/>
	</g>
</g>
</svg>
