<svg id="Layer_1" data-name="Layer 1" xmlns="http://www.w3.org/2000/svg" viewBox="0 0 13 12" width="13" height="12"><defs><style>.cls-1{fill:#f9c432;}</style></defs><title>star-full</title><polygon class="cls-1" points="6.5 9.53 3.1 11.31 3.75 7.53 1 4.84 4.8 4.29 6.5 0.85 8.2 4.29 12 4.84 9.25 7.53 9.9 11.31 6.5 9.53"/><path class="cls-1" d="M6.5,1.69,7.78,4.28,8,4.64l.39.06,2.86.41-2.07,2-.28.28.07.39.49,2.84L6.85,9.29,6.5,9.1l-.35.18L3.6,10.63l.49-2.84.07-.39-.28-.28-2.07-2,2.86-.41L5,4.64l.17-.35L6.5,1.69M6.5,0,4.55,4,.19,4.58,3.35,7.66,2.6,12l3.9-2,3.9,2L9.65,7.66l3.15-3.07L8.45,4,6.5,0Z"/></svg>