<svg id="Layer_1" data-name="Layer 1" xmlns="http://www.w3.org/2000/svg" viewBox="0 0 14 14" width="14" height="14"><defs><style>.cls-1{fill:#55b3e3;}</style></defs><title>pdf</title><g id="pdf"><polygon class="cls-1" points="7.39 7.74 6.61 6.88 6.14 8.21 7.39 7.74"/><path class="cls-1" d="M6.46,3.46H6.3a.23.23,0,0,0-.16.29v0a3.89,3.89,0,0,0,.31,1h0l.23-.86a.23.23,0,0,0-.08-.31Z"/><path class="cls-1" d="M3.66,10.62h.16l.54-.78H4.28l-.78.39v.16a.31.31,0,0,0,.08.23Z"/><path class="cls-1" d="M9.72,8l-.54.16a2.64,2.64,0,0,0,1.17.31h.16a.27.27,0,0,0,0-.39H9.72Z"/><path class="cls-1" d="M11.82.12H2.18A2.18,2.18,0,0,0,0,2.29H0v9.49a2.18,2.18,0,0,0,2.18,2.1h9.64A2.18,2.18,0,0,0,14,11.78V2.29A2.18,2.18,0,0,0,11.82.12Zm-1.24,9.1h-.23a4.12,4.12,0,0,1-2.18-.78H8.09l-2.41.78H5.52l-.31.54-.7,1.17a1.09,1.09,0,0,1-.78.47H3.66A1.09,1.09,0,0,1,2.8,11a1,1,0,0,1,0-1.43L3,9.45l1.17-.54h.31l.39-.16H5a16.8,16.8,0,0,0,.93-2.33V6.18a.54.54,0,0,0-.08-.47,5.6,5.6,0,0,1-.62-1.63A1.09,1.09,0,0,1,5.6,2.92a1,1,0,0,1,1.17-.08,1,1,0,0,1,.62.93,4.36,4.36,0,0,1-.31,1.32h0v.31l-.16.39a.16.16,0,0,0,0,.08A6.77,6.77,0,0,0,8.17,7.51h.08a8.32,8.32,0,0,1,1.94-.39,1.07,1.07,0,0,1,.39,2.1Z"/></g></svg>