<svg id="Layer_1" data-name="Layer 1" xmlns="http://www.w3.org/2000/svg" viewBox="0 0 13 12" width="13" height="12"><defs><style>.cls-1{fill:#bbb;}.cls-2{fill:#f9c432;}</style></defs><title>star-half</title><path class="cls-1" d="M6.5,1.69,7.78,4.28,8,4.64l.39.06,2.86.41-2.07,2-.28.28.07.39.49,2.84L6.85,9.29,6.5,9.1l-.35.18L3.6,10.63l.49-2.84.07-.39-.28-.28-2.07-2,2.86-.41L5,4.64l.17-.35L6.5,1.69M6.5,0,4.55,4,.19,4.58,3.35,7.66,2.6,12l3.9-2,3.9,2L9.65,7.66l3.15-3.07L8.45,4,6.5,0Z"/><polygon class="cls-2" points="3.75 7.53 1 4.84 4.8 4.29 6.15 1.55 6.15 9.71 3.1 11.31 3.75 7.53"/><path class="cls-2" d="M5.78,3.16V9.48L3.6,10.63l.49-2.84.07-.39-.28-.28-2.07-2,2.86-.41L5,4.64l.17-.35.55-1.12M6.5,0,4.55,4,.19,4.58,3.35,7.66,2.6,12l3.9-2h0V.05L6.5,0Z"/></svg>