<svg id="Layer_1" data-name="Layer 1" xmlns="http://www.w3.org/2000/svg" viewBox="0 0 12 12" width="12" height="12"><defs><style>.cls-1{fill:#40ace2;}.cls-2{fill:none;stroke:#40ace2;stroke-miterlimit:10;stroke-width:0.7px;}</style></defs><title>help</title><path class="cls-1" d="M5.41,6.55c0-1.08,1.32-1.21,1.32-1.83,0-.28-.21-.52-.71-.52a1.45,1.45,0,0,0-1.11.56l-.73-.82a2.59,2.59,0,0,1,2-.88C7.33,3.06,8,3.65,8,4.5,8,5.82,6.54,5.92,6.54,6.68a.55.55,0,0,0,.16.38l-1,.29A1.16,1.16,0,0,1,5.41,6.55Zm0,2a.73.73,0,1,1,.73.73A.74.74,0,0,1,5.41,8.57Z"/><circle class="cls-2" cx="6" cy="6" r="5.19"/></svg>